<svg width="45" height="45" viewBox="0 0 45 45" fill="none" xmlns="http://www.w3.org/2000/svg">
<g id="shopping_basket_24px">
<path id="icon/action/shopping_basket_24px" fill-rule="evenodd" clip-rule="evenodd" d="M32.2687 17.7938H41.25C42.2812 17.7938 43.125 18.6375 43.125 19.6688L43.0687 20.175L38.3063 37.5563C37.8563 39.1313 36.4125 40.2938 34.6875 40.2938H10.3125C8.5875 40.2938 7.14375 39.1313 6.7125 37.5563L1.95 20.175C1.89375 20.0063 1.875 19.8375 1.875 19.6688C1.875 18.6375 2.71875 17.7938 3.75 17.7938H12.7312L20.9438 5.51255C21.3 4.9688 21.9 4.7063 22.5 4.7063C23.1 4.7063 23.7 4.9688 24.0562 5.4938L32.2687 17.7938ZM27.7502 17.7938L22.5002 9.91882L17.2502 17.7938H27.7502ZM34.6875 36.5438L10.3313 36.5625L6.2063 21.5438H38.8125L34.6875 36.5438ZM18.75 29.0438C18.75 26.9813 20.4375 25.2938 22.5 25.2938C24.5625 25.2938 26.25 26.9813 26.25 29.0438C26.25 31.1063 24.5625 32.7938 22.5 32.7938C20.4375 32.7938 18.75 31.1063 18.75 29.0438Z" fill="black" fill-opacity="0.54"/>
</g>
</svg>
