<svg width="45" height="45" viewBox="0 0 45 45" fill="none" xmlns="http://www.w3.org/2000/svg">
<g id="lock_24px 2">
<path id="icon/action/lock_24px 2" fill-rule="evenodd" clip-rule="evenodd" d="M31.875 15.9375H33.75C35.8125 15.9375 37.5 17.625 37.5 19.6875V38.4375C37.5 40.5 35.8125 42.1875 33.75 42.1875H11.25C9.1875 42.1875 7.5 40.5 7.5 38.4375V19.6875C7.5 17.625 9.1875 15.9375 11.25 15.9375H13.125V12.1875C13.125 7.0125 17.325 2.8125 22.5 2.8125C27.675 2.8125 31.875 7.0125 31.875 12.1875V15.9375ZM22.5 6.5625C19.3875 6.5625 16.875 9.075 16.875 12.1875V15.9375H28.125V12.1875C28.125 9.075 25.6125 6.5625 22.5 6.5625ZM11.25 38.4375V19.6875H33.75V38.4375H11.25ZM26.25 29.0625C26.25 31.125 24.5625 32.8125 22.5 32.8125C20.4375 32.8125 18.75 31.125 18.75 29.0625C18.75 27 20.4375 25.3125 22.5 25.3125C24.5625 25.3125 26.25 27 26.25 29.0625Z" fill="black" fill-opacity="0.54"/>
</g>
</svg>
