<svg width="45" height="45" viewBox="0 0 45 45" fill="none" xmlns="http://www.w3.org/2000/svg">
<g id="perm_identity_24px">
<path id="icon/action/perm_identity_24px" fill-rule="evenodd" clip-rule="evenodd" d="M22.5 7.5C18.3562 7.5 15 10.8562 15 15C15 19.1438 18.3562 22.5 22.5 22.5C26.6437 22.5 30 19.1438 30 15C30 10.8562 26.6437 7.5 22.5 7.5ZM26.25 15C26.25 12.9375 24.5625 11.25 22.5 11.25C20.4375 11.25 18.75 12.9375 18.75 15C18.75 17.0625 20.4375 18.75 22.5 18.75C24.5625 18.75 26.25 17.0625 26.25 15ZM33.75 31.875C33.375 30.5438 27.5625 28.125 22.5 28.125C17.4375 28.125 11.625 30.5438 11.25 31.8937V33.75H33.75V31.875ZM7.5 31.875C7.5 26.8875 17.4937 24.375 22.5 24.375C27.5063 24.375 37.5 26.8875 37.5 31.875V37.5H7.5V31.875Z" fill="black" fill-opacity="0.54"/>
</g>
</svg>
